PathFileType	4	(X/Y/Z)	C:/Users/opensim2020/Desktop/walking_exp_matlab/subject03_walking15_straight_01.trc																																																																																																																																											
DataRate	CameraRate	NumFrames	NumMarkers	Units	OrigDataRate	OrigDataStartFrame	OrigNumFrames																																																																																																																																							
100	100	8	47	mm	100	599	196																																																																																																																																							
Frame#	Time	LFHD			RFHD			LBHD			RBHD			C7			T10			CLAV			STRN			RBAK			LSHO			LUPA			LELB			LFRM			LWRA			LWRB			LFIN			RSHO			RUPA			RELB			RFRM			RWRA			RWRB			RFIN			LASI			RASI			LPSI			RPSI			LTHI			LKNE			LTIB			LANK			LHEE			LTOE			RTHI			RKNE			RTIB			RANK			RHEE			RTOE			*39			*40			*41			*42			*43			*44			*45			*46		
		X1	Y1	Z1	X2	Y2	Z2	X3	Y3	Z3	X4	Y4	Z4	X5	Y5	Z5	X6	Y6	Z6	X7	Y7	Z7	X8	Y8	Z8	X9	Y9	Z9	X10	Y10	Z10	X11	Y11	Z11	X12	Y12	Z12	X13	Y13	Z13	X14	Y14	Z14	X15	Y15	Z15	X16	Y16	Z16	X17	Y17	Z17	X18	Y18	Z18	X19	Y19	Z19	X20	Y20	Z20	X21	Y21	Z21	X22	Y22	Z22	X23	Y23	Z23	X24	Y24	Z24	X25	Y25	Z25	X26	Y26	Z26	X27	Y27	Z27	X28	Y28	Z28	X29	Y29	Z29	X30	Y30	Z30	X31	Y31	Z31	X32	Y32	Z32	X33	Y33	Z33	X34	Y34	Z34	X35	Y35	Z35	X36	Y36	Z36	X37	Y37	Z37	X38	Y38	Z38	X39	Y39	Z39	X40	Y40	Z40	X41	Y41	Z41	X42	Y42	Z42	X43	Y43	Z43	X44	Y44	Z44	X45	Y45	Z45	X46	Y46	Z46	X47	Y47	Z47
																																																																																																																																														
99	0.98	146.53578	1621.56921	1378.30811	145.11661	1630.97046	1511.25195	29.48243	1555.21277	1385.63452	32.54988	1564.75891	1516.16125	20.31519	1403.92651	1439.57605	0.32911	1093.37219	1437.90344	145.88545	1335.66077	1448.40271	199.74379	1172.91541	1441.33276	-26.73457	1224.06226	1525.63196	110.53275	1372.05847	1291.14417	150.76527	1185.75098	1214.02124	196.7924	1071.22217	1202.33032	274.25592	968.42297	1216.9574	338.58389	874.64935	1261.77722	325.48264	866.57184	1208.52026	379.61349	806.33746	1227.24268	84.89799	1354.39502	1604.98926	71.19471	1132.19788	1676.03357	79.85689	1019.17883	1689.05273	83.87972	881.96173	1692.15356	105.39688	784.01361	1657.74402	72.76467	781.79767	1701.33301	92.36059	709.69995	1692.67114	159.0459	933.09027	1315.51184	168.93385	931.39856	1552.85156	-0.42393	956.60742	1373.63232	6.03379	956.36578	1521.5697	63.60572	636.02765	1285.9303	31.02547	462.52991	1328.89319	-62.89325	286.02402	1329.82007	-128.94601	85.91401	1375.63599	-174.89529	58.54798	1412.46936	16.97488	34.08663	1395.77173	189.68681	644.19714	1604.63135	267.01645	483.37704	1571.84558	268.53415	292.86655	1573.46863	303.22214	78.6954	1527.29407	270.5744	42.359	1469.19922	446.1246	62.97776	1518.97412	53.98698	1668.97375	1429.04199	NaN	NaN	NaN	NaN	NaN	NaN	NaN	NaN	NaN	NaN	NaN	NaN	NaN	NaN	NaN	NaN	NaN	NaN	NaN	NaN	NaN
100	0.99	159.59979	1619.85327	1379.14294	157.99968	1629.2605	1511.74512	42.49204	1553.73633	1385.84863	45.37056	1563.1062	1516.38989	33.12879	1402.37415	1440.17346	12.68838	1091.83167	1439.34949	158.64313	1333.87695	1448.33862	212.31892	1171.14648	1440.62549	-13.64145	1222.26929	1526.36133	122.51638	1370.44104	1291.44348	164.6718	1185.01782	1214.54248	212.36725	1071.36218	1202.96094	293.34686	971.51373	1218.4707	361.12286	881.11707	1264.75891	348.14825	871.34912	1211.74316	404.13358	813.05573	1231.87585	98.35315	1352.49817	1605.22913	82.76335	1130.42529	1676.20703	90.40655	1017.37231	1689.38855	92.24902	880.09473	1692.58398	112.02163	781.49127	1658.53894	79.55861	780.10956	1702.11243	97.54462	707.54651	1693.1582	170.27045	931.49872	1315.41064	182.56639	929.65485	1552.42664	11.51253	954.56696	1375.52209	19.38065	954.46472	1523.45337	72.36082	635.42834	1286.27209	37.98432	462.24103	1328.76074	-58.88664	287.0011	1329.98901	-128.02625	87.8936	1375.58936	-174.32172	61.03584	1412.2688	17.05428	34.02592	1395.71643	198.61476	640.72443	1605.75452	277.50403	480.37741	1571.12158	287.52188	292.06564	1574.0697	333.08865	79.11929	1529.95618	302.56439	41.51326	1472.38562	477.63852	68.94196	1521.82825	66.85464	1667.25879	1429.60168	NaN	NaN	NaN	NaN	NaN	NaN	NaN	NaN	NaN	NaN	NaN	NaN	NaN	NaN	NaN	NaN	NaN	NaN	NaN	NaN	NaN
101	1	172.70613	1618.3667	1379.54456	170.99023	1627.65112	1512.21704	55.54579	1552.2522	1386.10449	58.30133	1561.53564	1516.67566	45.87613	1400.67993	1440.81885	25.31728	1090.28027	1440.87537	171.51555	1332.19507	1448.34375	224.95633	1169.44873	1439.93884	-0.37637	1220.54468	1527.18921	134.60306	1368.99744	1291.78564	178.57948	1184.41858	1215.24377	227.88464	1071.52612	1203.62048	311.78656	974.72418	1220.04724	382.84885	887.68738	1267.59241	370.22363	876.46667	1215.00867	427.94247	820.12799	1236.36292	111.94273	1350.7301	1605.55994	94.72285	1128.79529	1676.30481	100.96486	1015.52917	1689.59814	101.08737	878.30426	1693.12085	119.27024	779.24792	1659.25842	86.80254	778.52045	1702.90881	102.47591	704.62042	1693.3728	182.00609	930.10095	1315.66235	196.16258	927.89532	1552.09229	23.36766	952.73474	1377.56873	32.78009	952.66388	1525.36914	81.78703	634.69598	1286.67834	45.48233	461.64722	1328.43274	-54.27256	288.0047	1329.77197	-126.77757	89.95378	1375.25488	-173.7121	63.94516	1411.80957	17.06989	33.88918	1395.68689	207.37985	637.13757	1607.50891	288.29837	477.77094	1570.35693	305.72247	291.73404	1574.70813	360.5672	80.40765	1532.7019	331.33554	41.23267	1475.56042	505.98798	75.2083	1524.36145	79.84901	1665.6228	1430.11511	NaN	NaN	NaN	NaN	NaN	NaN	NaN	NaN	NaN	NaN	NaN	NaN	NaN	NaN	NaN	NaN	NaN	NaN	NaN	NaN	NaN
102	1.01	185.75972	1616.95068	1380.01416	183.9726	1626.17188	1512.69543	68.58278	1550.87134	1386.44287	71.26177	1560.10059	1516.99939	58.76186	1399.26355	1441.65247	38.1056	1088.88147	1442.38354	184.49905	1330.65369	1448.40771	237.74429	1167.79639	1439.46667	12.94964	1219.01013	1528.16907	146.56497	1367.59253	1292.19946	192.30484	1183.82202	1216.00208	242.90784	1071.79065	1204.45349	329.64465	977.9696	1221.65894	403.75949	894.3194	1270.31714	391.466	881.72284	1218.04443	450.89273	827.43292	1240.56726	125.69241	1349.04211	1605.96411	107.00413	1127.14917	1676.56104	112.12946	1013.85181	1689.93103	110.17683	876.4953	1693.56213	126.88376	777.07928	1660.01331	94.62236	777.04456	1703.651	109.04304	703.30066	1694.80774	193.05649	928.45013	1315.1665	209.96385	926.27448	1551.99219	35.44055	951.04791	1379.56897	46.41058	950.96985	1527.29126	91.36769	634.24274	1286.4458	53.66623	461.02905	1328.04712	-49.12979	289.077	1329.40491	-125.62044	92.35229	1374.68115	-172.99565	67.31304	1411.10535	17.18444	33.76305	1395.69153	216.42422	633.96149	1609.65466	299.86008	475.75397	1569.95154	323.38766	291.71887	1575.62427	384.7576	81.71497	1534.56372	356.77051	41.29564	1477.77148	530.75891	80.45579	1526.29663	90.90652	1661.14282	1426.96179	NaN	NaN	NaN	NaN	NaN	NaN	NaN	NaN	NaN	NaN	NaN	NaN	NaN	NaN	NaN	NaN	NaN	NaN	NaN	NaN	NaN
103	1.02	199.00571	1615.67615	1380.5083	197.0797	1624.87915	1513.18188	81.77511	1549.6593	1386.78894	84.26014	1558.86646	1517.3999	71.85017	1397.91809	1442.56848	50.93695	1087.73999	1443.75537	197.60017	1329.26709	1448.56091	250.67128	1166.44312	1439.16223	26.36945	1217.65881	1529.20898	158.72661	1366.45911	1292.63904	205.69278	1183.30859	1216.79871	257.41315	1071.96741	1205.38171	346.88409	981.28925	1223.34949	423.7312	900.94739	1273.02502	411.7934	887.06519	1221.05933	472.99072	835.04669	1244.53845	139.60475	1347.5022	1606.38513	119.63169	1125.65039	1676.77222	123.89603	1012.38208	1690.27661	119.83055	874.98779	1694.15796	135.03351	775.16492	1660.87646	102.65025	775.89929	1704.70618	115.26431	701.60498	1695.59363	205.23999	927.2583	1315.37207	223.62842	924.80017	1551.97534	47.73663	949.49799	1381.56885	60.1137	949.60535	1529.04834	101.55268	633.71765	1286.5293	62.62184	460.35565	1327.49109	-43.42197	290.27478	1328.88574	-123.94895	95.09968	1373.9873	-171.8347	71.21019	1410.44067	17.38334	33.6954	1395.57898	226.66357	631.50824	1611.65808	312.18881	474.58688	1569.79761	339.71332	291.64127	1576.12183	405.61462	82.56345	1535.58459	378.43176	41.39663	1478.65198	551.9519	83.99297	1527.49646	104.13558	1659.85791	1427.2207	NaN	NaN	NaN	NaN	NaN	NaN	NaN	NaN	NaN	NaN	NaN	NaN	NaN	NaN	NaN	NaN	NaN	NaN	NaN	NaN	NaN
104	1.03	212.1478	1614.49731	1381.01965	210.16861	1623.69836	1513.62036	94.89308	1548.57251	1387.21216	97.36681	1557.7594	1517.8147	84.98275	1396.84363	1443.47644	64.09348	1086.63708	1444.86304	210.74042	1328.03381	1448.82117	263.74719	1165.21057	1439.01501	39.78231	1216.57813	1530.35156	170.97328	1365.47266	1293.08459	218.71579	1182.78076	1217.5271	271.48282	1072.25024	1206.43835	363.49121	984.69611	1225.07117	442.87985	907.63611	1275.71619	431.254	892.47498	1224.00159	494.20905	842.86536	1248.20801	153.50676	1346.16467	1606.93884	132.60246	1124.34216	1676.94714	135.6618	1011.0105	1690.48535	129.93787	873.85034	1694.78186	143.60854	773.4704	1661.83313	111.2337	774.84833	1705.68604	122.16558	700.23218	1696.46533	217.67004	926.20508	1315.66333	237.43497	923.59302	1552.24866	60.7847	947.73181	1383.24768	73.77353	948.57123	1530.54236	112.33088	633.33215	1286.51758	72.24081	459.6965	1326.71594	-37.11862	291.61938	1328.28284	-121.9432	98.3992	1373.30444	-170.60652	75.68568	1409.57239	17.56128	33.56598	1395.49976	238.41632	630.07904	1612.42358	325.15332	474.00278	1569.79761	354.68542	291.16968	1576.61621	422.23773	82.46467	1535.7511	395.46899	41.08023	1479.10303	569.18054	85.30392	1527.35217	119.48432	1661.82373	1431.11792	NaN	NaN	NaN	NaN	NaN	NaN	NaN	NaN	NaN	NaN	NaN	NaN	NaN	NaN	NaN	NaN	NaN	NaN	NaN	NaN	NaN
105	1.04	225.41853	1613.55774	1381.5022	223.40648	1622.81506	1514.18457	108.15437	1547.64856	1387.69434	110.54172	1556.85474	1518.29626	98.2268	1395.97083	1444.44861	77.43785	1085.74683	1445.7533	223.98187	1327.02393	1449.13013	276.92111	1164.25427	1439.05029	53.33624	1215.66492	1531.43787	183.30624	1364.72583	1293.66748	231.33313	1182.23889	1218.17456	285.17072	1072.44531	1207.47595	379.27573	987.94348	1226.73145	461.09192	914.24426	1278.37012	449.57681	897.83807	1226.93176	514.39282	850.8009	1251.56702	167.48126	1345.04822	1607.54675	145.89218	1123.14343	1677.24146	148.06589	1009.90857	1690.72437	140.55518	872.64557	1695.40869	152.6868	772.0249	1662.8302	120.41152	774.02753	1706.76025	129.3383	698.90094	1697.36182	230.31102	925.18201	1316.03296	251.31621	923.0368	1552.7522	73.47558	946.43964	1384.85425	87.53282	947.91107	1531.83826	123.6757	632.93976	1286.53064	82.72197	459.05942	1325.63904	-30.22422	293.12881	1327.50427	-119.7232	102.06151	1372.38757	-168.81627	80.73752	1408.61328	17.88049	33.38185	1395.37927	253.42262	630.64667	1612.14319	338.7767	474.17844	1569.98669	368.44543	290.48157	1577.06128	435.77686	81.65643	1536.26208	407.98877	40.11946	1479.73535	582.49115	84.19951	1525.66528	134.38847	1662.17957	1431.07434	NaN	NaN	NaN	NaN	NaN	NaN	NaN	NaN	NaN	NaN	NaN	NaN	NaN	NaN	NaN	NaN	NaN	NaN	NaN	NaN	NaN
106	1.05	238.73172	1612.79468	1382.02148	236.65573	1622.13745	1514.67822	121.42858	1546.85132	1388.30603	123.82893	1556.18262	1518.90466	111.50259	1395.12	1445.46606	90.78568	1085.00659	1446.41553	237.33105	1326.26453	1449.60425	290.37183	1163.50208	1439.29761	67.00381	1214.90613	1532.50085	195.8013	1364.18787	1294.28662	243.69061	1181.7124	1218.8092	298.07364	1072.59546	1208.6134	394.34039	991.12756	1228.37854	478.39471	920.76276	1280.90332	467.22644	903.28595	1229.71594	533.62952	858.80518	1254.63721	181.42984	1344.17432	1608.24182	159.52817	1122.22632	1677.47278	161.09512	1008.98145	1691.08582	151.66127	871.83008	1696.07056	162.37074	770.8703	1663.85303	130.2522	773.54114	1707.80017	136.87283	697.63147	1697.80737	243.49463	924.35229	1316.63293	265.37143	923.06622	1553.47925	87.28177	945.25336	1386.07629	101.30841	947.48291	1532.83984	135.77699	632.63263	1286.52954	94.1149	458.37201	1324.49719	-22.54757	294.74399	1326.56299	-116.93803	106.19209	1371.35083	-166.62904	86.44836	1407.57031	17.89163	33.14765	1395.78088	269.64096	631.45001	1611.61316	353.24411	474.78824	1569.89185	381.07559	289.58414	1577.32458	444.88535	79.54311	1536.11133	416.04568	38.40944	1480.65271	591.99921	80.73391	1522.6261	143.75348	1656.88098	1428.19287	NaN	NaN	NaN	NaN	NaN	NaN	NaN	NaN	NaN	NaN	NaN	NaN	NaN	NaN	NaN	NaN	NaN	NaN	NaN	NaN	NaN
